<svg width="64" height="24" viewBox="0 0 64 24" fill="none" xmlns="http://www.w3.org/2000/svg">
<path d="M57.9511 10.5807L57.8927 11.2904C57.4863 16.3761 55.8611 17.9435 53.8581 17.9435C52.0582 17.9435 50.7807 16.7017 51.0422 13.3901L51.1003 12.6503C51.507 7.59392 53.1321 5.99703 55.1349 5.99703C56.9059 5.99703 58.2123 7.26903 57.9511 10.5807ZM12.9579 10.5807L12.8996 11.2904C12.4937 16.3761 10.8679 17.9435 8.86496 17.9435C7.06507 17.9435 5.78825 16.7017 6.04941 13.3901L6.10705 12.6503C6.51371 7.59392 8.1394 5.99703 10.1424 5.99703C11.9128 5.99703 13.2191 7.26903 12.9579 10.5807ZM55.7157 1C52.5267 1 49.9328 2.00144 48.1001 4.07451C48.3612 3.35479 48.4987 2.47724 48.5166 1.44352H37.3412C34.9028 1.44352 33.5094 2.53745 32.5516 5.34676L33.0452 1.44352H21.7532C19.6859 1.44352 18.2666 2.45047 17.7538 4.42242C16.3545 2.13798 13.8681 1 10.7226 1C4.74324 1 0.853314 4.51904 0.156605 12.0294L0.0695045 12.9758C-0.540057 19.6885 2.91445 23 8.28418 23C14.264 23 18.154 19.4517 18.8507 11.9407L18.9377 10.9948C19.0949 9.2724 18.9801 7.77564 18.634 6.5H23.698L22.2469 19.1562C21.9562 21.6694 23.2919 22.8226 25.5266 22.8226C26.8911 22.8226 27.3554 22.7339 27.8779 22.6453L29.6778 6.5H35.5706L34.119 19.1562C33.8289 21.6694 35.1641 22.8226 37.3994 22.8226C38.7632 22.8226 39.2282 22.7339 39.7506 22.6453L41.5499 6.5H44.4531C45.4574 6.5 46.2685 6.26222 46.8946 5.79217C45.9805 7.43273 45.3839 9.50456 45.1496 12.0294L45.0627 12.9758C44.4531 19.6885 47.907 23 53.2773 23C59.2574 23 63.1465 19.4517 63.8433 11.9407L63.9305 10.9948C64.5401 4.31166 61.086 1 55.7157 1Z" fill="#D4021D"/>
</svg>
